# xmcd
#
# Track frame offsets:
# 150
# 16207
# 32452
# 44802
# 61661
# 87856
# 112438
# 125263
# 142105
# 162950
# 176404
# 195784
# 212691
# 227758
# 248417
# 265412
# 280864
# 300203
#
# Disc length: 4296 seconds
#
# Revision: 0
# Processed by: cddbd v1.5.1PL2 Copyright (c) Steve Scherf et al.
# Submitted via: Audion 3.0.2 (http://www.panic.com/audion/)
#
DISCID=ed10c612
DTITLE=jb - g
DYEAR=1900
DGENRE=
TTITLE0=kh
TTITLE1=k 
TTITLE2=ej
TTITLE3=g
TTITLE4=sn
TTITLE5=s
TTITLE6=sf
TTITLE7=mm
TTITLE8=gjw
TTITLE9=q
TTITLE10=nfn
TTITLE11=fna
TTITLE12=msf
TTITLE13=maf
TTITLE14=bz
TTITLE15=bzk
TTITLE16=gm
TTITLE17=sfs
EXTD=
EXTT0=
EXTT1=
EXTT2=
EXTT3=
EXTT4=
EXTT5=
EXTT6=
EXTT7=
EXTT8=
EXTT9=
EXTT10=
EXTT11=
EXTT12=
EXTT13=
EXTT14=
EXTT15=
EXTT16=
EXTT17=
PLAYORDER=
